# xmcd
#
# Track frame offsets:
#	150
#	21872
#	42650
#	63347
#	88826
#	106656
#	129626
#	150534
#	172147
#	192827
#	215078
#	232407
#	251831
#	273610
#	296205
#
# Disc length: 4195 seconds
#
# Revision: 1
# Processed by: cddbd v1.5.2PL0 Copyright (c) Steve Scherf et al.
# Submitted via: EasyCDDAExtractor 10.0.5.1
#
DISCID=ef10610f
DTITLE=Various Artist - 超級女聲 - 華語篇CD2
DYEAR=2005
DGENRE=Diva
TTITLE0=王菲 - 棋子
TTITLE1=范曉萱 - 眼淚
TTITLE2=梁靜茹 - 分手快樂
TTITLE3=劉若英 - 後來
TTITLE4=莫文蔚 - 他不愛我
TTITLE5=彭佳慧 - 聽說愛情回來過
TTITLE6=范瑋琪 - 啟程
TTITLE7=溫嵐 - 北斗星
TTITLE8=楊乃文 - 證據
TTITLE9=蔡健雅 - 呼吸
TTITLE10=林凡 - 沙灘
TTITLE11=周蕙 - 約定
TTITLE12=張玉華 - 屬於自己
TTITLE13=許茹芸 - 淚海
TTITLE14=陳慧琳 - 記事本
EXTD=
EXTT0=
EXTT1=
EXTT2=
EXTT3=
EXTT4=
EXTT5=
EXTT6=
EXTT7=
EXTT8=
EXTT9=
EXTT10=
EXTT11=
EXTT12=
EXTT13=
EXTT14=
PLAYORDER=
